<?xml version="1.0" encoding="UTF-8"?>
<svg width="292px" height="61px" viewBox="0 0 292 61" version="1.1" xmlns="http://www.w3.org/2000/svg" xmlns:xlink="http://www.w3.org/1999/xlink">
    <!-- Generator: Sketch 51.3 (57544) - http://www.bohemiancoding.com/sketch -->
    <title>Group</title>
    <desc>Created with Sketch.</desc>
    <defs>
        <radialGradient cx="50%" cy="50%" fx="50%" fy="50%" r="50%" gradientTransform="translate(0.500000,0.500000),scale(0.058594,1.000000),rotate(90.000000),scale(1.000000,10.743122),translate(-0.500000,-0.500000)" id="radialGradient-1">
            <stop stop-color="#8A8A8A" stop-opacity="0.46" offset="0%"></stop>
            <stop stop-color="#7C7C7C" stop-opacity="0" offset="100%"></stop>
        </radialGradient>
    </defs>
    <g id="Page-1" stroke="none" stroke-width="1" fill="none" fill-rule="evenodd">
        <g id="Group" transform="translate(-47.000000, 0.000000)">
            <path d="M86.8777208,44.8 C85.9817208,44.8 85.3417208,44.352 85.0857208,43.456 L72.0937208,1.792 C71.7737208,0.704 72.2857208,0 73.4377208,0 L81.3097208,0 C82.2057208,0 82.8457208,0.384 83.1017208,1.344 L91.9977208,32.96 L100.893721,1.344 C101.149721,0.384 101.789721,0 102.685721,0 L110.557721,0 C111.709721,0 112.221721,0.704 111.901721,1.792 L98.9097208,43.456 C98.6537208,44.352 98.0137208,44.8 97.1177208,44.8 L86.8777208,44.8 Z M117.597721,8.96 C116.573721,8.96 115.997721,8.384 115.997721,7.36 L115.997721,1.6 C115.997721,0.576 116.573721,0 117.597721,0 L123.997721,0 C125.021721,0 125.597721,0.576 125.597721,1.6 L125.597721,7.36 C125.597721,8.384 125.021721,8.96 123.997721,8.96 L117.597721,8.96 Z M117.597721,44.8 C116.573721,44.8 115.997721,44.224 115.997721,43.2 L115.997721,14.4 C115.997721,13.376 116.573721,12.8 117.597721,12.8 L123.997721,12.8 C125.021721,12.8 125.597721,13.376 125.597721,14.4 L125.597721,43.2 C125.597721,44.224 125.021721,44.8 123.997721,44.8 L117.597721,44.8 Z M148.893721,12.288 L148.893722,12.2873594 C149.981722,12.0953594 150.557722,12.7993594 150.557722,13.8233594 L150.557722,21.3753594 C150.557722,22.3993594 150.109722,22.9113594 149.277722,22.9113594 C145.693722,22.7833594 142.237722,24.5753594 142.237722,29.6953594 L142.237722,43.1993594 C142.237722,44.2233594 141.661722,44.7993594 140.637722,44.7993594 L134.237722,44.7993594 C133.213722,44.7993594 132.637722,44.2233594 132.637722,43.1993594 L132.637722,14.3993594 C132.637722,13.3753594 133.213722,12.7993594 134.237722,12.7993594 L140.637722,12.7993594 C141.661722,12.7993594 142.237722,13.3753594 142.237722,14.3993594 L142.237722,17.8585596 C143.192602,14.6457598 145.714201,12.7647998 148.893721,12.288 Z M170.397721,12.8 C171.421721,12.8 171.997721,13.376 171.997721,14.4 L171.997721,20.416 C171.997721,21.44 171.421721,22.016 170.397721,22.016 L166.877721,22.016 L166.877721,43.2 C166.877721,44.224 166.301721,44.8 165.277721,44.8 L158.877721,44.8 C157.853721,44.8 157.277721,44.224 157.277721,43.2 L157.277721,22.016 L153.757721,22.016 C152.733721,22.016 152.157721,21.44 152.157721,20.416 L152.157721,14.4 C152.157721,13.376 152.733721,12.8 153.757721,12.8 L157.277721,12.8 L157.277721,4.16 C157.277721,3.136 157.853721,2.56 158.877721,2.56 L165.277721,2.56 C166.301721,2.56 166.877721,3.136 166.877721,4.16 L166.877721,12.8 L170.397721,12.8 Z M202.205721,12.8 C203.229721,12.8 203.805721,13.376 203.805721,14.4 L203.805721,43.2 C203.805721,44.224 203.229721,44.8 202.205721,44.8 L195.805721,44.8 C194.781721,44.8 194.205721,44.224 194.205721,43.2 L194.205721,41.8771201 C192.701721,44.1011201 189.97724,45.696 185.885721,45.696 C179.933721,45.696 175.645721,41.088 175.645721,33.088 L175.645721,14.4 C175.645721,13.376 176.221721,12.8 177.245721,12.8 L183.645721,12.8 C184.669721,12.8 185.245721,13.376 185.245721,14.4 L185.245721,32.256 C185.245721,35.456 187.101721,36.864 189.533721,36.864 C192.413721,36.864 194.205721,35.264 194.205721,31.488 L194.205721,14.4 C194.205721,13.376 194.781721,12.8 195.805721,12.8 L202.205721,12.8 Z M223.805721,45.696 C214.397721,45.696 206.845721,38.336 206.845721,28.8 C206.845721,19.264 214.397721,11.904 223.805721,11.904 C233.213721,11.904 240.765721,19.264 240.765721,28.8 C240.765721,38.336 233.213721,45.696 223.805721,45.696 Z M223.805721,36.352 C227.965721,36.352 231.165721,33.344 231.165721,28.8 C231.165721,24.256 227.965721,21.248 223.805721,21.248 C219.645721,21.248 216.445721,24.256 216.445721,28.8 C216.445721,33.344 219.645721,36.352 223.805721,36.352 Z M252.125721,22.4 C252.125721,27.136 268.829721,22.72 268.829721,35.2 C268.829721,42.56 262.557721,45.696 255.517721,45.696 C248.989721,45.696 243.101721,42.752 242.333721,35.968 C242.205721,34.88 242.845721,34.304 243.869721,34.304 L250.141721,34.304 C251.101721,34.304 251.421721,34.816 251.869721,35.648 C252.381721,36.736 253.597721,37.376 255.517721,37.376 C258.205721,37.376 259.229721,36.48 259.229721,35.2 C259.229721,30.592 242.525721,34.816 242.525721,22.4 C242.525721,15.168 248.797721,11.904 255.517721,11.904 C261.469721,11.904 267.293721,14.848 268.061721,21.632 C268.189721,22.72 267.549721,23.296 266.525721,23.296 L260.253721,23.296 C259.293721,23.296 258.973721,22.784 258.525721,21.888 C258.077721,20.864 256.989721,20.224 255.517721,20.224 C253.149721,20.224 252.125721,21.12 252.125721,22.4 Z M286.909721,45.696 C277.501721,45.696 269.949721,38.336 269.949721,28.8 C269.949721,19.264 277.501721,11.904 286.909721,11.904 C296.317721,11.904 303.869721,19.264 303.869721,28.8 C303.869721,38.336 296.317721,45.696 286.909721,45.696 Z M286.909721,36.352 C291.069721,36.352 294.269721,33.344 294.269721,28.8 C294.269721,24.256 291.069721,21.248 286.909721,21.248 C282.749721,21.248 279.549721,24.256 279.549721,28.8 C279.549721,33.344 282.749721,36.352 286.909721,36.352 Z" id="Virtuoso" fill="#2B92E4"></path>
            <ellipse id="Oval" fill-opacity="0.33" fill="url(#radialGradient-1)" fill-rule="nonzero" cx="188" cy="53.5" rx="128" ry="7.5"></ellipse>
            <ellipse id="Oval-Copy" fill-opacity="0.33" fill="url(#radialGradient-1)" fill-rule="nonzero" cx="128" cy="53.5" rx="128" ry="7.5"></ellipse>
            <ellipse id="Oval-Copy-2" fill-opacity="0.33" fill="url(#radialGradient-1)" fill-rule="nonzero" cx="258" cy="53.5" rx="128" ry="7.5"></ellipse>
        </g>
    </g>
</svg>